<svg width="170" height="211" viewBox="0 0 170 211" fill="none" xmlns="http://www.w3.org/2000/svg">
<g filter="url(#filter0_d_1_180)">
<path d="M68.8663 123.268L68.2783 121.504H64.3723L63.7843 123.268H61.6983L65.1283 113.468H67.5223L70.9663 123.268H68.8663ZM64.9883 119.698H67.6763L66.3323 115.694L64.9883 119.698ZM76.9485 113.468H78.7545V123.268H76.9485V122.442C76.4165 123.123 75.6605 123.464 74.6805 123.464C73.7378 123.464 72.9305 123.109 72.2585 122.4C71.5958 121.681 71.2645 120.804 71.2645 119.768C71.2645 118.732 71.5958 117.859 72.2585 117.15C72.9305 116.431 73.7378 116.072 74.6805 116.072C75.6605 116.072 76.4165 116.412 76.9485 117.094V113.468ZM73.6165 121.196C73.9898 121.56 74.4565 121.742 75.0165 121.742C75.5765 121.742 76.0385 121.56 76.4025 121.196C76.7665 120.822 76.9485 120.346 76.9485 119.768C76.9485 119.189 76.7665 118.718 76.4025 118.354C76.0385 117.98 75.5765 117.794 75.0165 117.794C74.4565 117.794 73.9898 117.98 73.6165 118.354C73.2525 118.718 73.0705 119.189 73.0705 119.768C73.0705 120.346 73.2525 120.822 73.6165 121.196ZM86.3702 122.4C85.6515 123.109 84.7742 123.464 83.7382 123.464C82.7022 123.464 81.8248 123.109 81.1062 122.4C80.3968 121.681 80.0422 120.804 80.0422 119.768C80.0422 118.732 80.3968 117.859 81.1062 117.15C81.8248 116.431 82.7022 116.072 83.7382 116.072C84.7742 116.072 85.6515 116.431 86.3702 117.15C87.0888 117.859 87.4482 118.732 87.4482 119.768C87.4482 120.804 87.0888 121.681 86.3702 122.4ZM82.3802 121.154C82.7442 121.518 83.1968 121.7 83.7382 121.7C84.2795 121.7 84.7322 121.518 85.0962 121.154C85.4602 120.79 85.6422 120.328 85.6422 119.768C85.6422 119.208 85.4602 118.746 85.0962 118.382C84.7322 118.018 84.2795 117.836 83.7382 117.836C83.1968 117.836 82.7442 118.018 82.3802 118.382C82.0255 118.746 81.8482 119.208 81.8482 119.768C81.8482 120.328 82.0255 120.79 82.3802 121.154ZM92.7927 116.072C93.7353 116.072 94.538 116.431 95.2007 117.15C95.8727 117.859 96.2087 118.732 96.2087 119.768C96.2087 120.804 95.8727 121.681 95.2007 122.4C94.538 123.109 93.7353 123.464 92.7927 123.464C91.8127 123.464 91.0567 123.123 90.5247 122.442V123.268H88.7187V113.468H90.5247V117.094C91.0567 116.412 91.8127 116.072 92.7927 116.072ZM91.0707 121.196C91.4347 121.56 91.8967 121.742 92.4567 121.742C93.0167 121.742 93.4787 121.56 93.8427 121.196C94.216 120.822 94.4027 120.346 94.4027 119.768C94.4027 119.189 94.216 118.718 93.8427 118.354C93.4787 117.98 93.0167 117.794 92.4567 117.794C91.8967 117.794 91.4347 117.98 91.0707 118.354C90.7067 118.718 90.5247 119.189 90.5247 119.768C90.5247 120.346 90.7067 120.822 91.0707 121.196ZM99.0083 120.51C99.251 121.387 99.909 121.826 100.982 121.826C101.673 121.826 102.196 121.592 102.55 121.126L104.006 121.966C103.316 122.964 102.298 123.464 100.954 123.464C99.797 123.464 98.8683 123.114 98.1683 122.414C97.4683 121.714 97.1183 120.832 97.1183 119.768C97.1183 118.713 97.4637 117.836 98.1543 117.136C98.845 116.426 99.7317 116.072 100.814 116.072C101.841 116.072 102.686 116.426 103.348 117.136C104.02 117.845 104.356 118.722 104.356 119.768C104.356 120.001 104.333 120.248 104.286 120.51H99.0083ZM98.9803 119.11H102.55C102.448 118.634 102.233 118.279 101.906 118.046C101.589 117.812 101.225 117.696 100.814 117.696C100.329 117.696 99.9277 117.822 99.6103 118.074C99.293 118.316 99.083 118.662 98.9803 119.11ZM54.8007 130.468H56.7327V140.268H54.8007V130.468ZM58.4628 140.268V130.048H60.2688V140.268H58.4628ZM61.9218 140.268V130.048H63.7278V140.268H61.9218ZM70.0008 133.268H71.8068V140.268H70.0008V139.484C69.5621 140.137 68.8668 140.464 67.9148 140.464C67.1495 140.464 66.5148 140.207 66.0108 139.694C65.5161 139.18 65.2688 138.471 65.2688 137.566V133.268H67.0748V137.342C67.0748 137.808 67.2008 138.168 67.4528 138.42C67.7048 138.662 68.0408 138.784 68.4608 138.784C68.9275 138.784 69.3008 138.639 69.5808 138.35C69.8608 138.06 70.0008 137.626 70.0008 137.048V133.268ZM75.0722 135.256C75.0722 135.442 75.1935 135.596 75.4362 135.718C75.6882 135.83 75.9915 135.932 76.3462 136.026C76.7008 136.11 77.0555 136.222 77.4102 136.362C77.7648 136.492 78.0635 136.716 78.3062 137.034C78.5582 137.351 78.6842 137.748 78.6842 138.224C78.6842 138.942 78.4135 139.498 77.8722 139.89C77.3402 140.272 76.6728 140.464 75.8702 140.464C74.4328 140.464 73.4528 139.908 72.9302 138.798L74.4982 137.916C74.7035 138.522 75.1608 138.826 75.8702 138.826C76.5142 138.826 76.8362 138.625 76.8362 138.224C76.8362 138.037 76.7102 137.888 76.4582 137.776C76.2155 137.654 75.9168 137.547 75.5622 137.454C75.2075 137.36 74.8528 137.244 74.4982 137.104C74.1435 136.964 73.8402 136.744 73.5882 136.446C73.3455 136.138 73.2242 135.755 73.2242 135.298C73.2242 134.607 73.4762 134.066 73.9802 133.674C74.4935 133.272 75.1282 133.072 75.8842 133.072C76.4535 133.072 76.9715 133.202 77.4382 133.464C77.9048 133.716 78.2735 134.08 78.5442 134.556L77.0042 135.396C76.7802 134.92 76.4068 134.682 75.8842 134.682C75.6508 134.682 75.4548 134.733 75.2962 134.836C75.1468 134.938 75.0722 135.078 75.0722 135.256ZM83.6446 135.004H82.0626V137.916C82.0626 138.158 82.1232 138.336 82.2446 138.448C82.3659 138.56 82.5432 138.625 82.7766 138.644C83.0099 138.653 83.2992 138.648 83.6446 138.63V140.268C82.4032 140.408 81.5259 140.291 81.0126 139.918C80.5086 139.544 80.2566 138.877 80.2566 137.916V135.004H79.0386V133.268H80.2566V131.854L82.0626 131.308V133.268H83.6446V135.004ZM86.8333 134.472C87.0013 134.024 87.2766 133.688 87.6593 133.464C88.0513 133.24 88.4853 133.128 88.9613 133.128V135.144C88.4106 135.078 87.9159 135.19 87.4773 135.48C87.0479 135.769 86.8333 136.25 86.8333 136.922V140.268H85.0273V133.268H86.8333V134.472ZM95.0777 133.268H96.8837V140.268H95.0777V139.442C94.5364 140.123 93.7757 140.464 92.7957 140.464C91.8624 140.464 91.0597 140.109 90.3877 139.4C89.7251 138.681 89.3937 137.804 89.3937 136.768C89.3937 135.732 89.7251 134.859 90.3877 134.15C91.0597 133.431 91.8624 133.072 92.7957 133.072C93.7757 133.072 94.5364 133.412 95.0777 134.094V133.268ZM91.7457 138.196C92.1097 138.56 92.5717 138.742 93.1317 138.742C93.6917 138.742 94.1537 138.56 94.5177 138.196C94.8911 137.822 95.0777 137.346 95.0777 136.768C95.0777 136.189 94.8911 135.718 94.5177 135.354C94.1537 134.98 93.6917 134.794 93.1317 134.794C92.5717 134.794 92.1097 134.98 91.7457 135.354C91.3817 135.718 91.1997 136.189 91.1997 136.768C91.1997 137.346 91.3817 137.822 91.7457 138.196ZM102.525 135.004H100.943V137.916C100.943 138.158 101.004 138.336 101.125 138.448C101.247 138.56 101.424 138.625 101.657 138.644C101.891 138.653 102.18 138.648 102.525 138.63V140.268C101.284 140.408 100.407 140.291 99.8934 139.918C99.3894 139.544 99.1374 138.877 99.1374 137.916V135.004H97.9194V133.268H99.1374V131.854L100.943 131.308V133.268H102.525V135.004ZM109.544 139.4C108.825 140.109 107.948 140.464 106.912 140.464C105.876 140.464 104.999 140.109 104.28 139.4C103.571 138.681 103.216 137.804 103.216 136.768C103.216 135.732 103.571 134.859 104.28 134.15C104.999 133.431 105.876 133.072 106.912 133.072C107.948 133.072 108.825 133.431 109.544 134.15C110.263 134.859 110.622 135.732 110.622 136.768C110.622 137.804 110.263 138.681 109.544 139.4ZM105.554 138.154C105.918 138.518 106.371 138.7 106.912 138.7C107.453 138.7 107.906 138.518 108.27 138.154C108.634 137.79 108.816 137.328 108.816 136.768C108.816 136.208 108.634 135.746 108.27 135.382C107.906 135.018 107.453 134.836 106.912 134.836C106.371 134.836 105.918 135.018 105.554 135.382C105.199 135.746 105.022 136.208 105.022 136.768C105.022 137.328 105.199 137.79 105.554 138.154ZM113.699 134.472C113.867 134.024 114.142 133.688 114.525 133.464C114.917 133.24 115.351 133.128 115.827 133.128V135.144C115.276 135.078 114.781 135.19 114.343 135.48C113.913 135.769 113.699 136.25 113.699 136.922V140.268H111.893V133.268H113.699V134.472Z" fill="#828282"/>
<path d="M44.0034 4.45367H125.764V85.4586H44.0034V4.45367Z" fill="url(#paint0_radial_1_180)"/>
<path d="M44.0034 4.45367H125.764V85.4586H44.0034V4.45367ZM40.2878 89.2423H129.497V0.669922H40.2878V89.2423ZM98.7187 32.2496C98.7187 31.9404 98.8259 31.7949 99.1653 31.7949H105.007C105.31 31.7949 105.453 31.904 105.453 32.2496V62.1194C105.453 62.4286 105.382 62.5742 105.007 62.5742H99.2368C98.8616 62.5742 98.7545 62.3923 98.7545 62.083V32.2496H98.7187ZM98.3079 23.6453C98.3079 21.2258 99.987 19.7888 102.095 19.7888C104.364 19.7888 105.882 21.335 105.882 23.6453C105.882 26.1374 104.292 27.5018 102.023 27.5018C99.8799 27.52 98.3079 26.1556 98.3079 23.6453ZM81.5878 44.6923C80.5517 40.4902 78.0866 31.3401 77.1577 26.9015H77.0862C76.3003 31.3219 74.3353 38.8166 72.7812 44.6923H81.5878ZM71.2628 50.8227L68.3332 62.174C68.2618 62.4832 68.1546 62.556 67.7794 62.556H62.3133C61.9381 62.556 61.8667 62.4468 61.9381 61.9921L72.4954 24.3729C72.674 23.6998 72.799 23.0813 72.8705 21.2258C72.8705 20.953 72.9777 20.8438 73.1742 20.8438H80.9804C81.2484 20.8438 81.3556 20.9166 81.427 21.2258L93.2526 62.0648C93.324 62.3741 93.2526 62.556 92.9489 62.556H86.786C86.4823 62.556 86.3037 62.4832 86.2323 62.2104L83.1776 50.8227H71.2628Z" fill="#FF7F18"/>
<path d="M13.5037 183.86C13.8036 182.94 15.1055 182.94 15.4053 183.86L17.1564 189.234C17.2906 189.646 17.6743 189.924 18.1072 189.924H23.768C24.7374 189.924 25.1397 191.165 24.3547 191.734L19.7798 195.049C19.4284 195.304 19.2813 195.756 19.4158 196.168L21.1643 201.535C21.4644 202.456 20.4111 203.223 19.6268 202.655L15.0413 199.332C14.6912 199.079 14.2179 199.079 13.8678 199.332L9.28228 202.655C8.49802 203.223 7.44473 202.456 7.74475 201.535L9.49333 196.168C9.62778 195.756 9.4807 195.304 9.12924 195.049L4.55437 191.734C3.76936 191.165 4.17169 189.924 5.14108 189.924H10.8018C11.2348 189.924 11.6185 189.646 11.7526 189.234L13.5037 183.86Z" fill="#070707"/>
<path d="M48.6009 183.86C48.9008 182.94 50.2027 182.94 50.5025 183.86L52.2536 189.234C52.3877 189.646 52.7715 189.924 53.2044 189.924H58.8652C59.8346 189.924 60.2369 191.165 59.4519 191.734L54.877 195.049C54.5256 195.304 54.3785 195.756 54.5129 196.168L56.2615 201.535C56.5615 202.456 55.5082 203.223 54.724 202.655L50.1384 199.332C49.7884 199.079 49.315 199.079 48.965 199.332L44.3794 202.655C43.5952 203.223 42.5419 202.456 42.8419 201.535L44.5905 196.168C44.7249 195.756 44.5779 195.304 44.2264 195.049L39.6515 191.734C38.8665 191.165 39.2689 189.924 40.2383 189.924H45.899C46.3319 189.924 46.7157 189.646 46.8498 189.234L48.6009 183.86Z" fill="#070707"/>
<path d="M83.6981 183.86C83.9979 182.94 85.2998 182.94 85.5997 183.86L87.3508 189.234C87.4849 189.646 87.8687 189.924 88.3016 189.924H93.9623C94.9317 189.924 95.3341 191.165 94.5491 191.734L89.9742 195.049C89.6227 195.304 89.4756 195.756 89.6101 196.168L91.3587 201.535C91.6587 202.456 90.6054 203.223 89.8211 202.655L85.2356 199.332C84.8856 199.079 84.4122 199.079 84.0622 199.332L79.4766 202.655C78.6924 203.223 77.6391 202.456 77.9391 201.535L79.6877 196.168C79.8221 195.756 79.675 195.304 79.3236 195.049L74.7487 191.734C73.9637 191.165 74.366 189.924 75.3354 189.924H80.9962C81.4291 189.924 81.8129 189.646 81.947 189.234L83.6981 183.86Z" fill="#070707"/>
<path d="M118.795 183.86C119.095 182.94 120.397 182.94 120.697 183.86L122.448 189.234C122.582 189.646 122.966 189.924 123.399 189.924H129.059C130.029 189.924 130.431 191.165 129.646 191.734L125.071 195.049C124.72 195.304 124.573 195.756 124.707 196.168L126.456 201.535C126.756 202.456 125.703 203.223 124.918 202.655L120.333 199.332C119.983 199.079 119.509 199.079 119.159 199.332L114.574 202.655C113.789 203.223 112.736 202.456 113.036 201.535L114.785 196.168C114.919 195.756 114.772 195.304 114.421 195.049L109.846 191.734C109.061 191.165 109.463 189.924 110.433 189.924H116.093C116.526 189.924 116.91 189.646 117.044 189.234L118.795 183.86Z" fill="#E5E5E5"/>
<path d="M153.892 183.86C154.192 182.94 155.494 182.94 155.794 183.86L157.545 189.234C157.679 189.646 158.063 189.924 158.496 189.924H164.157C165.126 189.924 165.528 191.165 164.743 191.734L160.168 195.049C159.817 195.304 159.67 195.756 159.804 196.168L161.553 201.535C161.853 202.456 160.8 203.223 160.015 202.655L155.43 199.332C155.08 199.079 154.606 199.079 154.256 199.332L149.671 202.655C148.887 203.223 147.833 202.456 148.133 201.535L149.882 196.168C150.016 195.756 149.869 195.304 149.518 195.049L144.943 191.734C144.158 191.165 144.56 189.924 145.53 189.924H151.19C151.623 189.924 152.007 189.646 152.141 189.234L153.892 183.86Z" fill="#E5E5E5"/>
</g>
<defs>
<filter id="filter0_d_1_180" x="0.13916" y="0.669922" width="169.019" height="210.18" filterUnits="userSpaceOnUse" color-interpolation-filters="sRGB">
<feFlood flood-opacity="0" result="BackgroundImageFix"/>
<feColorMatrix in="SourceAlpha" type="matrix" values="0 0 0 0 0 0 0 0 0 0 0 0 0 0 0 0 0 0 127 0" result="hardAlpha"/>
<feOffset dy="4"/>
<feGaussianBlur stdDeviation="2"/>
<feComposite in2="hardAlpha" operator="out"/>
<feColorMatrix type="matrix" values="0 0 0 0 0 0 0 0 0 0 0 0 0 0 0 0 0 0 0.25 0"/>
<feBlend mode="normal" in2="BackgroundImageFix" result="effect1_dropShadow_1_180"/>
<feBlend mode="normal" in="SourceGraphic" in2="effect1_dropShadow_1_180" result="shape"/>
</filter>
<radialGradient id="paint0_radial_1_180" cx="0" cy="0" r="1" gradientUnits="userSpaceOnUse" gradientTransform="translate(70.958 22.6309) scale(62.1406 61.2673)">
<stop stop-color="#423325" stop-opacity="0.98"/>
<stop offset="1" stop-color="#1C0A00"/>
</radialGradient>
</defs>
</svg>
